<svg width="120" height="24" viewBox="0 0 120 24" fill="none" xmlns="http://www.w3.org/2000/svg">
    <path d="M114.138 23.5824H120V0H114.138V23.5604V23.5824ZM105.445 23.5824H111.306V0H105.445V23.5604V23.5824ZM94.27 23.978C99.5609 23.978 103.688 20.6154 103.688 15.011V14.7473C103.688 9.27472 99.6048 5.86813 94.292 5.86813C88.9791 5.86813 84.8518 9.36264 84.8518 14.9011V15.1648C84.8518 20.7473 88.9791 23.978 94.27 23.978ZM94.3139 19.5824C92.0527 19.5824 90.8891 17.956 90.8891 14.989V14.7253C90.8891 11.8242 92.0966 10.2857 94.3139 10.2857C96.5313 10.2857 97.7168 11.9121 97.7168 14.7912V15.0549C97.7168 17.9121 96.5313 19.5604 94.3139 19.5604M68.584 23.5824H74.4896V16.044L79.1218 23.5824H85.708L79.6048 14.0879L85.225 6.35165H79.0999L74.4676 13.1648V0H68.562V23.5604L68.584 23.5824ZM57.0362 19.4506C55.0823 19.4506 53.8529 17.956 53.8529 15.0769V14.8132C53.8529 11.8242 55.0604 10.3297 57.146 10.3297C59.2316 10.3297 60.3732 11.7802 60.3732 14.7692V15.033C60.3732 17.956 59.0121 19.4506 57.0362 19.4506ZM55.0165 23.978C57.4753 23.978 59.2975 22.5714 60.1976 20.8132V23.5824H66.0812V6.35165H60.1976V8.74725C59.2097 7.01099 57.6509 5.89011 55.0604 5.89011C51.2184 5.89011 47.8375 9.01099 47.8375 14.9011V15.1648C47.8375 21.1209 51.1965 24 55.0165 24M35.9166 23.5824H41.8222V15.4066C41.8222 12.6374 43.798 11.5165 47.3985 11.6264V6.10989C44.7201 6.08791 42.9199 7.20879 41.8222 9.78022V6.35165H35.9166V23.5824ZM22.3271 12.989C22.6125 10.9231 23.8419 9.75824 25.6202 9.75824C27.3985 9.75824 28.562 10.9011 28.6498 12.989H22.3271ZM25.6422 23.978C30.8452 23.978 33.8529 21.7582 34.3798 17.8901H28.8474C28.6059 19.033 27.7936 19.9341 25.8397 19.9341C23.8858 19.9341 22.4149 18.6154 22.2613 16.3297H34.3798V14.7912C34.3798 8.59341 30.3403 5.89011 25.6202 5.89011C20.9001 5.89011 16.3117 9.38462 16.3117 14.9231V15.1868C16.3117 20.8352 20.2634 24 25.6641 24M0.0219536 23.5824H5.9056V16.044L10.5598 23.5824H17.146L11.0428 14.0879L16.663 6.35165H10.5379L5.88364 13.1648V0H0V23.5604L0.0219536 23.5824Z" fill="#494A4A"/>
</svg>
