<svg width="28" height="20" viewBox="0 0 28 20" fill="none" xmlns="http://www.w3.org/2000/svg">
    <path d="M3.11111 0.666687C1.39514 0.666687 0 2.06183 0 3.7778V6.88891C0 7.31669 0.359722 7.6521 0.763194 7.79308C1.67708 8.10905 2.33333 8.97919 2.33333 10C2.33333 11.0209 1.67708 11.891 0.763194 12.207C0.359722 12.3479 0 12.6834 0 13.1111V16.2222C0 17.9382 1.39514 19.3334 3.11111 19.3334H24.8889C26.6049 19.3334 28 17.9382 28 16.2222V13.1111C28 12.6834 27.6403 12.3479 27.2368 12.207C26.3229 11.891 25.6667 11.0209 25.6667 10C25.6667 8.97919 26.3229 8.10905 27.2368 7.79308C27.6403 7.6521 28 7.31669 28 6.88891V3.7778C28 2.06183 26.6049 0.666687 24.8889 0.666687H3.11111ZM6.22222 6.11113V13.8889C6.22222 14.3167 6.57222 14.6667 7 14.6667H21C21.4278 14.6667 21.7778 14.3167 21.7778 13.8889V6.11113C21.7778 5.68335 21.4278 5.33335 21 5.33335H7C6.57222 5.33335 6.22222 5.68335 6.22222 6.11113ZM4.66667 5.33335C4.66667 4.47294 5.36181 3.7778 6.22222 3.7778H21.7778C22.6382 3.7778 23.3333 4.47294 23.3333 5.33335V14.6667C23.3333 15.5271 22.6382 16.2222 21.7778 16.2222H6.22222C5.36181 16.2222 4.66667 15.5271 4.66667 14.6667V5.33335Z" fill="#494A4A"/>
</svg>
